<svg xmlns="http://www.w3.org/2000/svg" version="1.1" xmlns:xlink="http://www.w3.org/1999/xlink" xmlns:svgjs="http://svgjs.dev/svgjs" width="1500" height="306" viewBox="0 0 1500 306"><g transform="matrix(1,0,0,1,-0.9090909090909918,-0.44479565590214065)"><svg viewBox="0 0 396 81" data-background-color="#ffffff" preserveAspectRatio="xMidYMid meet" height="306" width="1500" xmlns="http://www.w3.org/2000/svg" xmlns:xlink="http://www.w3.org/1999/xlink"><g id="tight-bounds" transform="matrix(1,0,0,1,0.2400000000000091,0.11774002656233051)"><svg viewBox="0 0 395.52 80.76451994687531" height="80.76451994687531" width="395.52"><g><svg viewBox="0 0 516.9042935708849 105.55098889747984" height="80.76451994687531" width="395.52"><g transform="matrix(1,0,0,1,0,14.587727119695117)"><svg viewBox="0 0 395.52 76.3755346580896" height="76.3755346580896" width="395.52"><g id="textblocktransform"><svg viewBox="0 0 395.52 76.3755346580896" height="76.3755346580896" width="395.52" id="textblock"><g><svg viewBox="0 0 395.52 46.74567703109327" height="46.74567703109327" width="395.52"><g transform="matrix(1,0,0,1,0,0)"><svg width="395.52" viewBox="3 -35.35 296.07 35.35" height="46.74567703109327" data-palette-color="#273d24"><g class="wordmark-text-0" data-fill-palette-color="primary" id="text-0"><path d="M29.8-8.55L29.8-8.55Q29.8-4.55 27.33-2.5 24.85-0.45 18.6-0.45L18.6-0.45 3-0.45 3-32.1 4.95-32.1 4.95-32.1 18.1-32.1Q22.25-32.1 24.58-31.23 26.9-30.35 27.85-28.65 28.8-26.95 28.8-24.4L28.8-24.4Q28.8-20.9 27.13-18.98 25.45-17.05 20.85-16.65L20.85-16.65 20.85-16.5Q24.25-16.25 26.2-15.38 28.15-14.5 28.98-12.85 29.8-11.2 29.8-8.55ZM15.9-25.8L15.9-25.8 11-25.8 11-19.6 15.9-19.6Q18.35-19.6 19.45-20.23 20.55-20.85 20.55-22.7L20.55-22.7Q20.55-24.5 19.45-25.15 18.35-25.8 15.9-25.8ZM16.9-13.05L16.9-13.05 11-13.05 11-6.7 16.9-6.7Q19.35-6.7 20.45-7.38 21.55-8.05 21.55-9.9L21.55-9.9Q21.55-11.8 20.45-12.43 19.35-13.05 16.9-13.05ZM42.3-34.1L42.3-0.45 34.3-0.45 34.3-34.1 42.3-34.1ZM55.84-33.85L55.84-33.85Q56-32.05 56-30.85L56-30.85Q56-30.15 55.97-29.43 55.95-28.7 55.84-27.8L55.84-27.8Q54.8-27.6 53.8-27.5 52.8-27.4 51.8-27.4L51.8-27.4Q50.84-27.4 49.87-27.5 48.9-27.6 47.9-27.8L47.9-27.8Q47.8-28.65 47.75-29.38 47.7-30.1 47.7-30.8L47.7-30.8Q47.7-31.45 47.75-32.2 47.8-32.95 47.9-33.85L47.9-33.85Q48.9-34.1 49.92-34.18 50.95-34.25 51.95-34.25L51.95-34.25Q52.9-34.25 53.87-34.18 54.84-34.1 55.84-33.85ZM55.84-24.8L55.84-0.45 47.84-0.45 47.84-24.8 55.84-24.8ZM60.14-7.25L60.29-7.35Q64.19-6.25 68.94-6.25L68.94-6.25Q71.24-6.25 72.39-6.4 73.54-6.55 73.94-6.9 74.34-7.25 74.34-7.85L74.34-7.85Q74.34-8.7 73.72-8.9 73.09-9.1 71.24-9.45L71.24-9.45 67.29-10.2Q63.49-10.95 61.82-12.58 60.14-14.2 60.14-17.45L60.14-17.45Q60.14-21.85 62.77-23.45 65.39-25.05 71.14-25.05L71.14-25.05Q74.59-25.05 77.22-24.68 79.84-24.3 81.59-23.75L81.59-23.75 81.49-17.7 81.34-17.55Q77.29-18.85 72.49-18.85L72.49-18.85Q70.14-18.85 69.22-18.53 68.29-18.2 68.29-17.25L68.29-17.25Q68.29-16.75 68.57-16.45 68.84-16.15 69.84-15.88 70.84-15.6 72.99-15.2L72.99-15.2 76.64-14.5Q79.69-13.85 81.14-12.35 82.59-10.85 82.59-7.6L82.59-7.6Q82.59-4.75 81.54-3.08 80.49-1.4 78.02-0.7 75.54 0 71.19 0L71.19 0Q67.89 0 65.12-0.33 62.34-0.65 60.14-1.1L60.14-1.1 60.14-7.25ZM85.59-7.25L85.74-7.35Q89.64-6.25 94.39-6.25L94.39-6.25Q96.69-6.25 97.84-6.4 98.99-6.55 99.39-6.9 99.79-7.25 99.79-7.85L99.79-7.85Q99.79-8.7 99.17-8.9 98.54-9.1 96.69-9.45L96.69-9.45 92.74-10.2Q88.94-10.95 87.27-12.58 85.59-14.2 85.59-17.45L85.59-17.45Q85.59-21.85 88.22-23.45 90.84-25.05 96.59-25.05L96.59-25.05Q100.04-25.05 102.67-24.68 105.29-24.3 107.04-23.75L107.04-23.75 106.94-17.7 106.79-17.55Q102.74-18.85 97.94-18.85L97.94-18.85Q95.59-18.85 94.67-18.53 93.74-18.2 93.74-17.25L93.74-17.25Q93.74-16.75 94.02-16.45 94.29-16.15 95.29-15.88 96.29-15.6 98.44-15.2L98.44-15.2 102.09-14.5Q105.14-13.85 106.59-12.35 108.04-10.85 108.04-7.6L108.04-7.6Q108.04-4.75 106.99-3.08 105.94-1.4 103.47-0.7 100.99 0 96.64 0L96.64 0Q93.34 0 90.56-0.33 87.79-0.65 85.59-1.1L85.59-1.1 85.59-7.25ZM113.84-18.3L110.29-18.3 110.29-24.8 113.84-24.8 113.84-26.05Q113.84-31 116.14-33.18 118.44-35.35 122.99-35.35L122.99-35.35Q124.59-35.35 125.94-35.08 127.29-34.8 128.29-34.45L128.29-34.45 128.29-28.85 128.14-28.75Q127.24-28.85 126.34-28.93 125.44-29 124.64-29L124.64-29Q122.94-29 122.26-28.38 121.59-27.75 121.59-26.45L121.59-26.45 121.59-24.8 128.29-24.8 128.29-18.3 121.59-18.3 121.59-0.45 113.84-0.45 113.84-18.3ZM140.29 0L140.29 0Q135.69 0 133.74-2.45 131.79-4.9 131.79-9.45L131.79-9.45 131.79-24.8 139.79-24.8 139.84-11.4Q139.84-9.15 140.64-8.22 141.44-7.3 143.89-7.3L143.89-7.3Q146.24-7.3 147.06-8.13 147.89-8.95 147.94-10.95L147.94-10.95 147.94-24.8 155.94-24.8 155.94-0.45 148.34-0.45 147.94-3.2 147.79-3.2Q147.14-1.75 145.14-0.88 143.14 0 140.29 0ZM169.93-34.1L169.93-0.45 161.93-0.45 161.93-34.1 169.93-34.1Z" fill="#273d24" data-fill-palette-color="primary"></path><path d="M214.73-8.55L214.73-8.55Q214.73-4.55 212.25-2.5 209.78-0.45 203.53-0.45L203.53-0.45 187.93-0.45 187.93-32.1 189.88-32.1 189.88-32.1 203.03-32.1Q207.18-32.1 209.5-31.23 211.83-30.35 212.78-28.65 213.73-26.95 213.73-24.4L213.73-24.4Q213.73-20.9 212.05-18.98 210.38-17.05 205.78-16.65L205.78-16.65 205.78-16.5Q209.18-16.25 211.13-15.38 213.08-14.5 213.9-12.85 214.73-11.2 214.73-8.55ZM200.83-25.8L200.83-25.8 195.93-25.8 195.93-19.6 200.83-19.6Q203.28-19.6 204.38-20.23 205.48-20.85 205.48-22.7L205.48-22.7Q205.48-24.5 204.38-25.15 203.28-25.8 200.83-25.8ZM201.83-13.05L201.83-13.05 195.93-13.05 195.93-6.7 201.83-6.7Q204.28-6.7 205.38-7.38 206.48-8.05 206.48-9.9L206.48-9.9Q206.48-11.8 205.38-12.43 204.28-13.05 201.83-13.05ZM226.77-33.85L226.77-33.85Q226.93-32.05 226.93-30.85L226.93-30.85Q226.93-30.15 226.9-29.43 226.88-28.7 226.77-27.8L226.77-27.8Q225.73-27.6 224.73-27.5 223.73-27.4 222.73-27.4L222.73-27.4Q221.77-27.4 220.8-27.5 219.83-27.6 218.83-27.8L218.83-27.8Q218.73-28.65 218.68-29.38 218.63-30.1 218.63-30.8L218.63-30.8Q218.63-31.45 218.68-32.2 218.73-32.95 218.83-33.85L218.83-33.85Q219.83-34.1 220.85-34.18 221.88-34.25 222.88-34.25L222.88-34.25Q223.83-34.25 224.8-34.18 225.77-34.1 226.77-33.85ZM226.77-24.8L226.77-0.45 218.77-0.45 218.77-24.8 226.77-24.8ZM232.82-7.75L232.82-7.75 232.82-18.25 229.82-18.25 229.82-24.75 233.57-24.75 235.07-30.7 240.82-30.7 240.82-24.75 246.27-24.75 246.27-18.25 240.82-18.25 240.82-9.5Q240.82-8.1 241.17-7.58 241.52-7.05 242.77-7.05L242.77-7.05Q243.57-7.05 244.47-7.13 245.37-7.2 246.27-7.3L246.27-7.3 246.42-7.2 246.42-0.7Q244.02 0 240.07 0L240.07 0Q236.12 0 234.47-1.8 232.82-3.6 232.82-7.75ZM272.37-6.8L272.37-1.25Q270.97-0.75 268.5-0.38 266.02 0 262.62 0L262.62 0Q258.32 0 255.3-1.13 252.27-2.25 250.72-4.98 249.17-7.7 249.17-12.55L249.17-12.55Q249.17-19.15 252.2-22.1 255.22-25.05 261.57-25.05L261.57-25.05Q266.12-25.05 268.75-23.75 271.37-22.45 272.5-20.08 273.62-17.7 273.62-14.45L273.62-14.45Q273.62-13.5 273.55-12.4 273.47-11.3 273.27-10.25L273.27-10.25 273.07-10.05 256.62-10.05Q256.97-7.85 258.7-7.15 260.42-6.45 264.32-6.45L264.32-6.45Q266.92-6.45 268.65-6.58 270.37-6.7 272.17-6.95L272.17-6.95 272.37-6.8ZM256.47-15.3L266.67-15.3Q266.67-16.5 266.3-17.38 265.92-18.25 264.82-18.73 263.72-19.2 261.57-19.2L261.57-19.2Q258.42-19.2 257.45-18.13 256.47-17.05 256.47-15.3L256.47-15.3ZM276.62-7.25L276.77-7.35Q280.67-6.25 285.42-6.25L285.42-6.25Q287.72-6.25 288.87-6.4 290.02-6.55 290.42-6.9 290.82-7.25 290.82-7.85L290.82-7.85Q290.82-8.7 290.19-8.9 289.57-9.1 287.72-9.45L287.72-9.45 283.77-10.2Q279.97-10.95 278.29-12.58 276.62-14.2 276.62-17.45L276.62-17.45Q276.62-21.85 279.24-23.45 281.87-25.05 287.62-25.05L287.62-25.05Q291.07-25.05 293.69-24.68 296.32-24.3 298.07-23.75L298.07-23.75 297.97-17.7 297.82-17.55Q293.77-18.85 288.97-18.85L288.97-18.85Q286.62-18.85 285.69-18.53 284.77-18.2 284.77-17.25L284.77-17.25Q284.77-16.75 285.04-16.45 285.32-16.15 286.32-15.88 287.32-15.6 289.47-15.2L289.47-15.2 293.12-14.5Q296.17-13.85 297.62-12.35 299.07-10.85 299.07-7.6L299.07-7.6Q299.07-4.75 298.02-3.08 296.97-1.4 294.49-0.7 292.02 0 287.67 0L287.67 0Q284.37 0 281.59-0.33 278.82-0.65 276.62-1.1L276.62-1.1 276.62-7.25Z" fill="#baee67" data-fill-palette-color="accent"></path></g></svg></g></svg></g><g transform="matrix(1,0,0,1,163.310208,57.78120948188565)"><svg viewBox="0 0 232.209792 18.594325176203967" height="18.594325176203967" width="232.209792"><g transform="matrix(1,0,0,1,0,0)"><svg width="232.209792" viewBox="1.05 -32.9 529.44 42.4" height="18.594325176203967" data-palette-color="#273d24"><path d="M15.7-10.9L15.7-10.9 12.15-10.9Q10.75-13 9.22-15.33 7.7-17.65 6.23-20.05 4.75-22.45 3.43-24.78 2.1-27.1 1.05-29.1L1.05-29.1Q1.25-29.65 1.8-30.18 2.35-30.7 3.25-30.7L3.25-30.7Q4.2-30.7 4.73-30.2 5.25-29.7 5.8-28.7L5.8-28.7Q6.45-27.55 7.28-26.13 8.1-24.7 9-23.13 9.9-21.55 10.8-20 11.7-18.45 12.48-17.1 13.25-15.75 13.85-14.75L13.85-14.75 14.05-14.75Q15.8-17.65 17.25-20.25 18.7-22.85 20.05-25.35 21.4-27.85 22.7-30.35L22.7-30.35Q23-30.55 23.45-30.63 23.9-30.7 24.25-30.7L24.25-30.7Q25.2-30.7 25.68-30.25 26.15-29.8 26.15-29L26.15-29Q26.15-28.5 25.38-26.88 24.6-25.25 23.2-22.83 21.8-20.4 19.9-17.35 18-14.3 15.7-10.9ZM11.9-1.6L11.9-12.85 15.95-12.85 15.95-0.1Q15.7 0 15.18 0.13 14.65 0.25 14.1 0.25L14.1 0.25Q13 0.25 12.45-0.2 11.9-0.65 11.9-1.6L11.9-1.6ZM52.7-11.55L52.7-11.55Q52.7-7.85 51.3-5.1 49.9-2.35 47.35-0.85 44.8 0.65 41.35 0.65L41.35 0.65Q37.9 0.65 35.32-0.85 32.75-2.35 31.35-5.1 29.95-7.85 29.95-11.55L29.95-11.55Q29.95-15.3 31.37-18.03 32.8-20.75 35.37-22.25 37.95-23.75 41.35-23.75L41.35-23.75Q44.75-23.75 47.3-22.25 49.85-20.75 51.27-18.03 52.7-15.3 52.7-11.55ZM41.35-20.45L41.35-20.45Q38-20.45 36.02-18.07 34.05-15.7 34.05-11.55L34.05-11.55Q34.05-7.35 35.97-5 37.9-2.65 41.35-2.65L41.35-2.65Q44.75-2.65 46.67-5.03 48.6-7.4 48.6-11.55L48.6-11.55Q48.6-15.7 46.67-18.07 44.75-20.45 41.35-20.45ZM58.9-8.45L58.9-8.45 58.9-13 62.9-13 62.9-8.65Q62.9-5.45 64.59-4.05 66.3-2.65 69.3-2.65L69.3-2.65Q71.3-2.65 72.7-3.08 74.09-3.5 74.9-3.95L74.9-3.95 74.9-13 78.9-13 78.9-4.1Q78.9-3.05 78.62-2.43 78.34-1.8 77.3-1.2L77.3-1.2Q76.2-0.55 74.15 0.05 72.09 0.65 69.25 0.65L69.25 0.65Q65.95 0.65 63.62-0.33 61.3-1.3 60.1-3.33 58.9-5.35 58.9-8.45ZM78.9-21.5L78.9-10.4 74.9-10.4 74.9-23Q75.15-23.1 75.67-23.23 76.2-23.35 76.75-23.35L76.75-23.35Q77.84-23.35 78.37-22.93 78.9-22.5 78.9-21.5L78.9-21.5ZM62.9-21.5L62.9-10.4 58.9-10.4 58.9-23Q59.15-23.1 59.67-23.23 60.2-23.35 60.8-23.35L60.8-23.35Q61.85-23.35 62.37-22.93 62.9-22.5 62.9-21.5L62.9-21.5ZM90.39-18.8L90.39-18.8 90.39-10.9 86.39-10.9 86.39-18.5Q86.39-19.65 86.82-20.33 87.24-21 88.24-21.65L88.24-21.65Q89.54-22.5 91.79-23.13 94.04-23.75 96.79-23.75L96.79-23.75Q100.79-23.75 100.79-21.75L100.79-21.75Q100.79-21.25 100.64-20.83 100.49-20.4 100.24-20.1L100.24-20.1Q99.74-20.2 98.94-20.3 98.14-20.4 97.34-20.4L97.34-20.4Q95.04-20.4 93.29-19.93 91.54-19.45 90.39-18.8ZM86.39-1.55L86.39-13.2 90.39-12.6 90.39-0.1Q90.14 0 89.64 0.13 89.14 0.25 88.54 0.25L88.54 0.25Q87.49 0.25 86.94-0.18 86.39-0.6 86.39-1.55L86.39-1.55ZM125.79-23.75L125.79-23.75Q128.89-23.75 131.36-22.43 133.84-21.1 135.26-18.4 136.69-15.7 136.69-11.55L136.69-11.55Q136.69-7.35 135.21-4.65 133.74-1.95 131.14-0.65 128.54 0.65 125.09 0.65L125.09 0.65Q122.64 0.65 120.66 0.05 118.69-0.55 117.44-1.25L117.44-1.25Q116.39-1.95 115.99-2.55 115.59-3.15 115.59-4.2L115.59-4.2 115.59-20.85 119.59-20.85 119.59-4.2Q120.34-3.65 121.79-3.15 123.24-2.65 125.09-2.65L125.09-2.65Q128.49-2.65 130.56-4.8 132.64-6.95 132.64-11.55L132.64-11.55Q132.64-16.2 130.54-18.32 128.44-20.45 125.19-20.45L125.19-20.45Q123.19-20.45 121.64-19.68 120.09-18.9 119.09-17.9L119.09-17.9 118.34-21.15Q119.44-22 121.29-22.88 123.14-23.75 125.79-23.75ZM119.59-30.95L119.59-20.05 115.59-20.05 115.59-32.4Q115.84-32.5 116.36-32.63 116.89-32.75 117.49-32.75L117.49-32.75Q118.54-32.75 119.06-32.33 119.59-31.9 119.59-30.95L119.59-30.95ZM164.38-11.55L164.38-11.55Q164.38-7.85 162.99-5.1 161.59-2.35 159.03-0.85 156.49 0.65 153.03 0.65L153.03 0.65Q149.59 0.65 147.01-0.85 144.44-2.35 143.03-5.1 141.63-7.85 141.63-11.55L141.63-11.55Q141.63-15.3 143.06-18.03 144.49-20.75 147.06-22.25 149.63-23.75 153.03-23.75L153.03-23.75Q156.44-23.75 158.99-22.25 161.53-20.75 162.96-18.03 164.38-15.3 164.38-11.55ZM153.03-20.45L153.03-20.45Q149.69-20.45 147.71-18.07 145.74-15.7 145.74-11.55L145.74-11.55Q145.74-7.35 147.66-5 149.59-2.65 153.03-2.65L153.03-2.65Q156.44-2.65 158.36-5.03 160.28-7.4 160.28-11.55L160.28-11.55Q160.28-15.7 158.36-18.07 156.44-20.45 153.03-20.45ZM186.33-3.95L186.33-3.95 186.33-20.75 190.33-20.8 190.33-3.8Q190.33-2.85 189.91-2.27 189.48-1.7 188.58-1.15L188.58-1.15Q187.58-0.5 185.73 0.08 183.88 0.65 181.48 0.65L181.48 0.65Q177.88 0.65 175.13-0.6 172.38-1.85 170.83-4.53 169.28-7.2 169.28-11.45L169.28-11.45Q169.28-15.8 170.81-18.5 172.33-21.2 174.93-22.48 177.53-23.75 180.63-23.75L180.63-23.75Q182.58-23.75 184.33-23.2 186.08-22.65 187.08-21.85L187.08-21.85 187.08-18.15Q186.13-19.1 184.61-19.78 183.08-20.45 181.03-20.45L181.03-20.45Q178.98-20.45 177.23-19.58 175.48-18.7 174.43-16.7 173.38-14.7 173.38-11.35L173.38-11.35Q173.38-6.8 175.58-4.73 177.78-2.65 181.43-2.65L181.43-2.65Q183.18-2.65 184.31-3.03 185.43-3.4 186.33-3.95ZM190.33-30.95L190.33-19.8 186.33-19.75 186.33-32.4Q186.58-32.5 187.11-32.63 187.63-32.75 188.18-32.75L188.18-32.75Q189.28-32.75 189.81-32.33 190.33-31.9 190.33-30.95L190.33-30.95ZM202.63-5.15L202.63-5.15Q201.78-6.75 200.58-9.47 199.38-12.2 198.11-15.58 196.83-18.95 195.68-22.45L195.68-22.45Q196.03-22.95 196.61-23.25 197.18-23.55 197.83-23.55L197.83-23.55Q198.68-23.55 199.23-23.1 199.78-22.65 200.13-21.6L200.13-21.6Q201.63-17.4 203.28-13.25 204.93-9.1 206.93-4.65L206.93-4.65 207.13-4.65Q208.18-6.75 209.33-9.9 210.48-13.05 211.53-16.55 212.58-20.05 213.28-23.15L213.28-23.15Q213.63-23.3 214.06-23.43 214.48-23.55 214.98-23.55L214.98-23.55Q215.83-23.55 216.38-23.13 216.93-22.7 216.93-21.85L216.93-21.85Q216.93-21.05 216.48-19.18 216.03-17.3 215.25-14.83 214.48-12.35 213.46-9.58 212.43-6.8 211.25-4.13 210.08-1.45 208.88 0.7L208.88 0.7Q206.58 4.95 204.68 7.23 202.78 9.5 201.18 9.5L201.18 9.5Q200.03 9.5 199.41 8.9 198.78 8.3 198.63 7.5L198.63 7.5Q199.73 6.55 201.11 4.98 202.48 3.4 203.75 1.58 205.03-0.25 205.83-1.9L205.83-1.9Q204.98-2.15 204.25-2.8 203.53-3.45 202.63-5.15ZM246.93-17.2L246.93-17.2Q246.03-14.05 245-10.9 243.97-7.75 243.03-5 242.07-2.25 241.28-0.25L241.28-0.25Q240.88 0 240.38 0.15 239.88 0.3 239.03 0.3L239.03 0.3Q238.22 0.3 237.55 0.03 236.88-0.25 236.63-0.85L236.63-0.85Q236.13-1.85 235.5-3.75 234.88-5.65 234.2-8.1 233.53-10.55 232.82-13.18 232.13-15.8 231.55-18.25 230.97-20.7 230.57-22.6L230.57-22.6Q230.93-22.95 231.45-23.25 231.97-23.55 232.72-23.55L232.72-23.55Q233.68-23.55 234.15-23.03 234.63-22.5 234.82-21.35L234.82-21.35Q235.28-19.25 235.85-16.6 236.43-13.95 237.05-11.35 237.68-8.75 238.2-6.68 238.72-4.6 238.97-3.6L238.97-3.6 239.18-3.6Q239.57-4.8 240.43-7.53 241.28-10.25 242.45-13.75 243.63-17.25 244.82-20.85L244.82-20.85Q245.22-21.1 245.78-21.23 246.32-21.35 246.97-21.35L246.97-21.35Q247.88-21.35 248.47-21.03 249.07-20.7 249.28-20.05L249.28-20.05Q250.47-16.6 251.53-13.28 252.57-9.95 253.38-7.38 254.18-4.8 254.53-3.55L254.53-3.55 254.78-3.55Q255.93-8 257.27-13.1 258.63-18.2 259.48-23.1L259.48-23.1Q260.18-23.55 261.18-23.55L261.18-23.55Q262.02-23.55 262.52-23.15 263.02-22.75 263.02-21.9L263.02-21.9Q263.02-21.35 262.7-19.8 262.38-18.25 261.82-16.15 261.27-14.05 260.6-11.68 259.93-9.3 259.23-7.08 258.52-4.85 257.9-3.05 257.27-1.25 256.82-0.25L256.82-0.25Q256.57-0.05 256 0.13 255.43 0.3 254.68 0.3L254.68 0.3Q252.63 0.3 252.28-0.65L252.28-0.65Q251.57-2.45 250.68-5.13 249.78-7.8 248.82-10.93 247.88-14.05 246.93-17.2ZM268.47-30.4L268.47-30.4Q268.47-31.45 269.22-32.18 269.97-32.9 271.07-32.9L271.07-32.9Q272.22-32.9 272.92-32.18 273.62-31.45 273.62-30.4L273.62-30.4Q273.62-29.35 272.92-28.63 272.22-27.9 271.07-27.9L271.07-27.9Q269.97-27.9 269.22-28.63 268.47-29.35 268.47-30.4ZM269.07-1.55L269.07-13.2 273.07-13.2 273.07-0.1Q272.82 0 272.32 0.13 271.82 0.25 271.22 0.25L271.22 0.25Q270.17 0.25 269.62-0.18 269.07-0.6 269.07-1.55L269.07-1.55ZM273.07-21.5L273.07-11.25 269.07-11.25 269.07-23Q269.32-23.1 269.85-23.23 270.37-23.35 270.97-23.35L270.97-23.35Q272.02-23.35 272.55-22.93 273.07-22.5 273.07-21.5L273.07-21.5ZM281.27-1.55L281.27-13.2 285.27-12.6 285.27-0.1Q285.02 0 284.52 0.13 284.02 0.25 283.42 0.25L283.42 0.25Q282.37 0.25 281.82-0.18 281.27-0.6 281.27-1.55L281.27-1.55ZM285.27-30.95L285.27-10.7 281.27-11.25 281.27-32.4Q281.52-32.5 282.05-32.63 282.57-32.75 283.12-32.75L283.12-32.75Q284.22-32.75 284.75-32.33 285.27-31.9 285.27-30.95L285.27-30.95ZM293.57-1.55L293.57-13.2 297.57-12.6 297.57-0.1Q297.32 0 296.82 0.13 296.32 0.25 295.72 0.25L295.72 0.25Q294.67 0.25 294.12-0.18 293.57-0.6 293.57-1.55L293.57-1.55ZM297.57-30.95L297.57-10.7 293.57-11.25 293.57-32.4Q293.82-32.5 294.34-32.63 294.87-32.75 295.42-32.75L295.42-32.75Q296.52-32.75 297.04-32.33 297.57-31.9 297.57-30.95L297.57-30.95ZM315.51-6.05L315.51-13.2 319.51-13.2 319.51-6.3Q319.51-4.3 320.66-3.48 321.81-2.65 323.81-2.65L323.81-2.65Q324.66-2.65 325.71-2.95 326.76-3.25 327.46-3.65L327.46-3.65Q327.76-3.35 328.01-2.9 328.26-2.45 328.26-1.85L328.26-1.85Q328.26-0.75 326.96-0.05 325.66 0.65 323.36 0.65L323.36 0.65Q319.86 0.65 317.69-0.9 315.51-2.45 315.51-6.05L315.51-6.05ZM326.66-19.3L317.56-19.3 317.56-22.6 327.71-22.6Q327.86-22.4 328.01-21.95 328.16-21.5 328.16-21L328.16-21Q328.16-20.2 327.76-19.75 327.36-19.3 326.66-19.3L326.66-19.3ZM319.51-28.35L319.51-11.7 315.51-11.7 315.51-29.8Q315.76-29.9 316.29-30.03 316.81-30.15 317.41-30.15L317.41-30.15Q318.46-30.15 318.99-29.73 319.51-29.3 319.51-28.35L319.51-28.35ZM354.11-14.65L354.11-9.95 350.11-9.95 350.11-14.55Q350.11-17.55 348.44-19 346.76-20.45 344.11-20.45L344.11-20.45Q342.16-20.45 340.49-19.7 338.81-18.95 337.66-17.9L337.66-17.9 336.91-21.15Q338.11-22 340.09-22.88 342.06-23.75 344.66-23.75L344.66-23.75Q348.81-23.75 351.46-21.5 354.11-19.25 354.11-14.65L354.11-14.65ZM334.16-1.55L334.16-13.2 338.16-13.2 338.16-0.1Q337.91 0 337.41 0.13 336.91 0.25 336.31 0.25L336.31 0.25Q335.26 0.25 334.71-0.18 334.16-0.6 334.16-1.55L334.16-1.55ZM350.11-1.55L350.11-13.15 354.11-13.1 354.11-0.1Q353.86 0 353.34 0.13 352.81 0.25 352.26 0.25L352.26 0.25Q351.16 0.25 350.64-0.18 350.11-0.6 350.11-1.55L350.11-1.55ZM338.16-30.95L338.16-11.25 334.16-11.25 334.16-32.4Q334.41-32.5 334.94-32.63 335.46-32.75 336.06-32.75L336.06-32.75Q337.11-32.75 337.64-32.33 338.16-31.9 338.16-30.95L338.16-30.95ZM369.86 0.7L369.86 0.7Q365.16 0.7 362.58-1.15 360.01-3 360.01-6.5L360.01-6.5Q360.01-9.75 362.18-11.48 364.36-13.2 368.21-13.55L368.21-13.55 375.31-14.25 375.31-15.65Q375.31-18.15 373.81-19.3 372.31-20.45 369.76-20.45L369.76-20.45Q367.71-20.45 365.83-19.85 363.96-19.25 362.51-18.5L362.51-18.5Q362.11-18.85 361.78-19.33 361.46-19.8 361.46-20.3L361.46-20.3Q361.46-21.6 362.91-22.3L362.91-22.3Q364.26-23 366.03-23.38 367.81-23.75 369.81-23.75L369.81-23.75Q374.16-23.75 376.71-21.8 379.26-19.85 379.26-15.65L379.26-15.65 379.26-3.8Q379.26-2.7 378.83-2.13 378.41-1.55 377.56-1.05L377.56-1.05Q376.36-0.4 374.36 0.15 372.36 0.7 369.86 0.7ZM369.86-2.6L369.86-2.6Q371.96-2.6 373.33-3.03 374.71-3.45 375.31-3.85L375.31-3.85 375.31-11.1 369.11-10.45Q366.51-10.25 365.26-9.3 364.01-8.35 364.01-6.55L364.01-6.55Q364.01-4.7 365.48-3.65 366.96-2.6 369.86-2.6ZM406.56-15.25L406.56-15.25 406.56-10.15 402.56-10.15 402.56-15.05Q402.56-17.85 400.98-19.15 399.41-20.45 396.76-20.45L396.76-20.45Q394.76-20.45 393.21-19.95 391.66-19.45 390.56-18.8L390.56-18.8 390.56-10.15 386.56-10.15 386.56-18.6Q386.56-19.65 386.98-20.33 387.41-21 388.46-21.65L388.46-21.65Q389.76-22.4 391.91-23.08 394.06-23.75 396.76-23.75L396.76-23.75Q401.31-23.75 403.93-21.68 406.56-19.6 406.56-15.25ZM386.56-1.55L386.56-12.9 390.56-12.9 390.56-0.1Q390.31 0 389.81 0.13 389.31 0.25 388.71 0.25L388.71 0.25Q387.66 0.25 387.11-0.18 386.56-0.6 386.56-1.55L386.56-1.55ZM402.56-1.55L402.56-12.9 406.56-12.9 406.56-0.1Q406.31 0 405.78 0.13 405.26 0.25 404.71 0.25L404.71 0.25Q403.61 0.25 403.08-0.18 402.56-0.6 402.56-1.55L402.56-1.55ZM430-19.15L420.2-10.55 417.7-12.5 429.1-23.55Q430.3-23.5 430.98-22.98 431.65-22.45 431.65-21.6L431.65-21.6Q431.65-20.9 431.23-20.35 430.8-19.8 430-19.15L430-19.15ZM428.25-1.15L417.6-11.85 420.4-13.5 433.1-2.1Q433-1 432.43-0.35 431.85 0.3 430.9 0.3L430.9 0.3Q430.15 0.3 429.53-0.1 428.9-0.5 428.25-1.15L428.25-1.15ZM414.15-1.55L414.15-13.4 418.15-12.8 418.15-0.1Q417.9 0 417.4 0.13 416.9 0.25 416.3 0.25L416.3 0.25Q415.25 0.25 414.7-0.18 414.15-0.6 414.15-1.55L414.15-1.55ZM418.15-30.95L418.15-10.85 414.15-11.45 414.15-32.4Q414.4-32.5 414.93-32.63 415.45-32.75 416.05-32.75L416.05-32.75Q417.1-32.75 417.63-32.33 418.15-31.9 418.15-30.95L418.15-30.95ZM453.1-5.15L453.1-5.15Q452.25-6.75 451.05-9.47 449.85-12.2 448.57-15.58 447.3-18.95 446.15-22.45L446.15-22.45Q446.5-22.95 447.07-23.25 447.65-23.55 448.3-23.55L448.3-23.55Q449.15-23.55 449.7-23.1 450.25-22.65 450.6-21.6L450.6-21.6Q452.1-17.4 453.75-13.25 455.4-9.1 457.4-4.65L457.4-4.65 457.6-4.65Q458.65-6.75 459.8-9.9 460.95-13.05 462-16.55 463.05-20.05 463.75-23.15L463.75-23.15Q464.1-23.3 464.52-23.43 464.95-23.55 465.45-23.55L465.45-23.55Q466.3-23.55 466.85-23.13 467.4-22.7 467.4-21.85L467.4-21.85Q467.4-21.05 466.95-19.18 466.5-17.3 465.72-14.83 464.95-12.35 463.92-9.58 462.9-6.8 461.72-4.13 460.55-1.45 459.35 0.7L459.35 0.7Q457.05 4.95 455.15 7.23 453.25 9.5 451.65 9.5L451.65 9.5Q450.5 9.5 449.87 8.9 449.25 8.3 449.1 7.5L449.1 7.5Q450.2 6.55 451.57 4.98 452.95 3.4 454.22 1.58 455.5-0.25 456.3-1.9L456.3-1.9Q455.45-2.15 454.72-2.8 454-3.45 453.1-5.15ZM494.3-11.55L494.3-11.55Q494.3-7.85 492.9-5.1 491.5-2.35 488.95-0.85 486.4 0.65 482.95 0.65L482.95 0.65Q479.5 0.65 476.92-0.85 474.35-2.35 472.95-5.1 471.55-7.85 471.55-11.55L471.55-11.55Q471.55-15.3 472.97-18.03 474.4-20.75 476.97-22.25 479.55-23.75 482.95-23.75L482.95-23.75Q486.35-23.75 488.9-22.25 491.45-20.75 492.87-18.03 494.3-15.3 494.3-11.55ZM482.95-20.45L482.95-20.45Q479.6-20.45 477.62-18.07 475.65-15.7 475.65-11.55L475.65-11.55Q475.65-7.35 477.57-5 479.5-2.65 482.95-2.65L482.95-2.65Q486.35-2.65 488.27-5.03 490.2-7.4 490.2-11.55L490.2-11.55Q490.2-15.7 488.27-18.07 486.35-20.45 482.95-20.45ZM500.49-8.45L500.49-8.45 500.49-13 504.49-13 504.49-8.65Q504.49-5.45 506.19-4.05 507.89-2.65 510.89-2.65L510.89-2.65Q512.89-2.65 514.29-3.08 515.69-3.5 516.49-3.95L516.49-3.95 516.49-13 520.49-13 520.49-4.1Q520.49-3.05 520.22-2.43 519.94-1.8 518.89-1.2L518.89-1.2Q517.79-0.55 515.74 0.05 513.69 0.65 510.84 0.65L510.84 0.65Q507.54 0.65 505.22-0.33 502.89-1.3 501.69-3.33 500.49-5.35 500.49-8.45ZM520.49-21.5L520.49-10.4 516.49-10.4 516.49-23Q516.74-23.1 517.27-23.23 517.79-23.35 518.34-23.35L518.34-23.35Q519.44-23.35 519.97-22.93 520.49-22.5 520.49-21.5L520.49-21.5ZM504.49-21.5L504.49-10.4 500.49-10.4 500.49-23Q500.74-23.1 501.27-23.23 501.79-23.35 502.39-23.35L502.39-23.35Q503.44-23.35 503.97-22.93 504.49-22.5 504.49-21.5L504.49-21.5ZM525.04-2.1L525.04-2.1Q525.04-3.3 525.76-4.1 526.49-4.9 527.79-4.9L527.79-4.9Q529.09-4.9 529.79-4.1 530.49-3.3 530.49-2.1L530.49-2.1Q530.49-0.95 529.79-0.15 529.09 0.65 527.79 0.65L527.79 0.65Q526.49 0.65 525.76-0.15 525.04-0.95 525.04-2.1Z" opacity="1" transform="matrix(1,0,0,1,0,0)" fill="#273d24" class="slogan-text-1" data-fill-palette-color="secondary" id="text-1"></path></svg></g></svg></g></svg></g></svg></g><g transform="matrix(1,0,0,1,406.5555324507924,0)"><svg viewBox="0 0 110.34876112009256 105.55098889747984" height="105.55098889747984" width="110.34876112009256"><g><svg xmlns="http://www.w3.org/2000/svg" xmlns:xlink="http://www.w3.org/1999/xlink" version="1.1" x="0" y="0" viewBox="26 36 460 440" style="enable-background:new 0 0 512 512;" xml:space="preserve" height="105.55098889747984" width="110.34876112009256" class="icon-icon-0" data-fill-palette-color="accent" id="icon-0"><g fill="#baee67" data-fill-palette-color="accent"><g fill="#baee67" data-fill-palette-color="accent"><g fill="#baee67" data-fill-palette-color="accent"><path d="M371 331c-11.028 0-20 8.972-20 20s8.972 20 20 20c11.027 0 20-8.972 20-20S382.027 331 371 331z" fill="#baee67" data-fill-palette-color="accent"></path><path d="M216 231c8.27 0 15-6.729 15-15s-6.73-15-15-15c-8.271 0-15 6.729-15 15S207.729 231 216 231z" fill="#baee67" data-fill-palette-color="accent"></path><path d="M236 321c-19.299 0-35 15.701-35 35s15.701 35 35 35 35-15.701 35-35S255.299 321 236 321z" fill="#baee67" data-fill-palette-color="accent"></path><path d="M51 411c-5.515 0-10 4.486-10 10s4.485 10 10 10c5.514 0 10-4.486 10-10S56.514 411 51 411z" fill="#baee67" data-fill-palette-color="accent"></path><path d="M106 241c-8.271 0-15 6.729-15 15 0 8.272 6.729 15 15 15 8.271 0 15-6.728 15-15C121 247.729 114.271 241 106 241z" fill="#baee67" data-fill-palette-color="accent"></path><path d="M466.173 300.357c-36.575-4.775-64.554-35.749-65.163-73.111C392.93 229.74 384.547 231 376 231c-46.869 0-85-38.131-85-85 0-20.992 7.789-41.138 21.65-56.641-18.88-4.718-34.124-19.236-39.54-38.236C157.1 47.14 61 140.385 61 256c0 113.037 91.962 205 205 205C362.277 461 445.586 393.768 466.173 300.357zM216 191c13.785 0 25 11.215 25 25s-11.215 25-25 25c-13.785 0-25-11.215-25-25S202.215 191 216 191zM106 281c-13.785 0-25-11.215-25-25 0-13.785 11.215-25 25-25s25 11.215 25 25C131 269.785 119.785 281 106 281zM156 326c-5.523 0-10-4.478-10-10s4.477-10 10-10c5.523 0 10 4.478 10 10S161.523 326 156 326zM156 166c-5.523 0-10-4.477-10-10s4.477-10 10-10c5.523 0 10 4.477 10 10S161.523 166 156 166zM236 401c-24.814 0-45-20.186-45-45s20.186-45 45-45c24.813 0 45 20.186 45 45S260.813 401 236 401zM306 416c-5.522 0-10-4.478-10-10s4.478-10 10-10c5.523 0 10 4.478 10 10S311.523 416 306 416zM316 286c-5.522 0-10-4.478-10-10s4.478-10 10-10c5.523 0 10 4.478 10 10S321.523 286 316 286zM371 381c-16.543 0-30-13.458-30-30s13.457-30 30-30c16.541 0 30 13.458 30 30S387.541 381 371 381z" fill="#baee67" data-fill-palette-color="accent"></path><path d="M66 91c8.271 0 15-6.729 15-15s-6.729-15-15-15c-8.271 0-15 6.729-15 15S57.729 91 66 91z" fill="#baee67" data-fill-palette-color="accent"></path><path d="M426 141c13.785 0 25-11.215 25-25s-11.215-25-25-25c-13.785 0-25 11.215-25 25S412.215 141 426 141z" fill="#baee67" data-fill-palette-color="accent"></path><circle cx="36" cy="136" r="10" fill="#baee67" data-fill-palette-color="accent"></circle><circle cx="336" cy="46" r="10" fill="#baee67" data-fill-palette-color="accent"></circle><circle cx="466" cy="206" r="10" fill="#baee67" data-fill-palette-color="accent"></circle><circle cx="476" cy="396" r="10" fill="#baee67" data-fill-palette-color="accent"></circle><circle cx="416" cy="456" r="10" fill="#baee67" data-fill-palette-color="accent"></circle><circle cx="116" cy="466" r="10" fill="#baee67" data-fill-palette-color="accent"></circle><circle cx="126" cy="46" r="10" fill="#baee67" data-fill-palette-color="accent"></circle></g></g></g></svg></g></svg></g></svg></g><defs></defs></svg><rect width="395.52" height="80.76451994687531" fill="none" stroke="none" visibility="hidden"></rect></g></svg></g></svg>